#!OML:ASF F:\VICON\USERDATA\INSTALL\rory3\rory3.ASF
:FULLY-SPECIFIED
:DEGREES
99
root 0.5502982976508588 17.82603344259256 39.29637807816342 -2.490624952865109 0.3615974803770077 2.112509450711212
lfemur 4.439124433734225 -3.3898441244413897 -26.23018393668402
ltibia 13.746667265198404
lfoot -13.749786232781222 0.36134515748441953
ltoes -0.4276411664077582
rfemur -27.41329725724815 2.5075663520258633 19.487131403049343
rtibia 38.24546381440535
rfoot -5.024360387671986 -14.125321753962563
rtoes 0.6099410168508159
lowerback 9.944229759625895 -0.39512824915741385 -2.2774434096273115
upperback 1.0416505423294657 -0.7974695687433448 0.9629186757087133
thorax -4.576088125479104 -0.38373460076829113 2.5132973513042676
lowerneck -16.271333265307888 -2.9361125607721714 -3.4684695752202197
upperneck 21.199864195550763 -3.704875712290534 1.9977361530668154
head 9.49105723772236 -1.7398267735821489 0.6090662009711454
lclavicle -1.9495546144847155e-15 9.10162838622887e-16
lhumerus -27.603104957769105 -2.624742426227934 82.26981556988957
lradius 33.50671117048351
lwrist 7.0573090747108855
lhand -26.785009899612668 25.646041171042988
lfingers 7.12502
lthumb -0.07354035996371333 55.45451602065133
rclavicle -1.954861549860761e-15 9.071086753527018e-16
rhumerus -30.080349104548585 -17.78728677718837 -79.48899467756706
rradius 25.652770071960635
rwrist 4.084166918562314
rhand -17.033030821503534 21.944660435901433
rfingers 7.12502
rthumb 9.391366673507166 -8.152077433637048
100
root 0.5016614830830127 17.831859140406525 39.615993884048436 -1.6498643768548167 1.0190202168744555 2.4787859137422292
lfemur 7.392301418529216 -2.9636714282834316 -26.495015515320983
ltibia 10.314941072342812
lfoot -12.4577085298057 -0.5069392220679896
ltoes -1.6390228964189948
rfemur -26.333961989587102 4.971555700147839 17.581221804709102
rtibia 26.018592430785386
rfoot -3.235287597621732 -16.025811464761823
rtoes -2.526441251938772
lowerback 9.414379134104324 -0.6275205212730791 -2.6976934368039602
upperback 0.8355949018260721 -1.1350303588053459 0.9617342078234847
thorax -4.571673906003101 -0.557215214280721 2.780144846018255
lowerneck -16.442774003489617 -2.9125936531752954 -3.3889175345576428
upperneck 21.097473488184992 -3.6793196786225812 1.9827628255015974
head 9.454098166277268 -1.7266422026779529 0.6197836386666691
lclavicle -1.9499779986114657e-15 9.097725059087507e-16
lhumerus -26.886670184320376 -2.9944482929166707 82.18379726552253
lradius 33.48950196426528
lwrist 7.674407772156116
lhand -27.37923703484424 24.93133935973217
lfingers 7.12502
lthumb -0.5124695857870161 54.83423599880439
rclavicle -1.9561848423248525e-15 9.056842253597474e-16
rhumerus -30.444549377460596 -18.47339971151055 -79.15446875794119
rradius 25.070872935086143
rwrist 4.957556115544736
rhand -17.200897356878688 22.93433550003245
rfingers 7.12502
rthumb 9.231925340702743 -6.66905421904855
101
root 0.43643992204289916 17.820883079077777 40.01374233464178 -0.8930021196837088 1.5720688040847541 2.7580580298964654
lfemur 9.997200815383547 -2.7934466346754796 -26.605099584178948
ltibia 7.845660404261945
lfoot -11.440580904780568 -1.1694154727459678
ltoes -2.8619665405165375
rfemur -25.630711548773 7.7688593130152 15.285086446566858
rtibia 16.482933719687505
rfoot -4.448460805698088 -17.697868026015794
rtoes -5.949068668955302
lowerback 8.837149997493473 -0.8062031089129277 -3.107672340432634
upperback 0.609900969629397 -1.507290797818952 0.9407340456389931
thorax -4.469965396357326 -0.7476809207323147 3.108176411306196
lowerneck -16.483525671219496 -2.9320851780622865 -3.408061701087961
upperneck 20.95384172285857 -3.7143446160748885 2.1334334273835482
head 9.4078695813215 -1.736551881085395 0.695945442397898
lclavicle -1.9519227820437282e-15 9.079814981165095e-16
lhumerus -26.669845595007953 -3.1268958389222403 82.0899674821364
lradius 33.33473103728262
lwrist 7.779654902308177
lhand -26.96519451245705 25.08619824311723
lfingers 7.12502
lthumb -0.03829385040097644 55.31695956343945
rclavicle -1.9562322771253895e-15 9.056325716361788e-16
rhumerus -30.846987713466604 -19.475667595745893 -78.61478076247336
rradius 24.263100245292808
rwrist 6.388908828976264
rhand -17.205877259846027 23.797561772050596
rfingers 7.12502
rthumb 9.164986128196672 -5.92994349833179
102
root 0.35925899316668974 17.77426782460965 40.227130460974145 -0.28824480461050417 2.54903883360925 3.3174324172399206
lfemur 12.041413924747356 -3.691893848307282 -27.099316817084265
ltibia 7.0679881090473415
lfoot -10.514051186383432 -2.3951141785215846
ltoes -5.1378872416871095
rfemur -25.8589561019982 7.404991497214587 14.605493807676691
rtibia 14.091585512469209
rfoot -6.771079808356587 -16.908614736296812
rtoes -8.404490717092767
lowerback 8.696966539300712 -0.9584899582547047 -3.739437688605725
upperback 0.34225347488253133 -1.7565110786304992 0.81872067508369
thorax -4.511765085293846 -0.8473022542751072 3.519279148555238
lowerneck -16.560650700263793 -2.944063697284524 -3.4752842104851194
upperneck 20.90549721022018 -3.7339119085591377 2.250216819227901
head 9.398741182548225 -1.7415769424604868 0.7636717120487582
lclavicle -1.9533409788621546e-15 9.066751476821808e-16
lhumerus -26.737029267652918 -3.26250336711104 82.18964868960111
lradius 32.92670167189671
lwrist 8.160718567793916
lhand -27.05192987749868 24.38182224115405
lfingers 7.12502
lthumb -0.24489364028916233 54.73956967461999
rclavicle -1.9577552514564113e-15 9.044563551331952e-16
rhumerus -31.10652683722457 -20.067455134718703 -78.26981665677481
rradius 23.57093989771211
rwrist 7.210305099520619
rhand -17.428171435751057 23.79273782848464
rfingers 7.12502
rthumb 8.871435831924867 -6.1620243742505725
103
root 0.2862792561090657 17.73368242687155 40.75084229652216 -0.5223321428819989 3.427234990794068 2.8217084638202192
lfemur 13.444592674405307 -5.036770828448086 -26.346883027071012
ltibia 9.21596183371273
lfoot -9.65340748732564 -3.433570525670712
ltoes -10.329470830452935
rfemur -26.344297309429592 5.212638828634672 16.316134719943065
rtibia 17.371368405975605
rfoot -7.032452085080347 -13.323685591756728
rtoes -7.416786501324008
lowerback 9.168163081836223 -1.1292788059910386 -3.236313556139079
upperback 0.4463080870489704 -1.9696957290660406 1.0998955559863048
thorax -4.583530513914518 -0.9901015216776663 3.4589103074625345
lowerneck -16.71559016191258 -2.97369625851128 -3.568401941201003
upperneck 20.931262353849046 -3.7636410795425768 2.3362510502094382
head 9.436939555057553 -1.7552771800204774 0.8135614491301693
lclavicle -1.9528992749017024e-15 9.0708196764725e-16
lhumerus -26.76250181722917 -2.9834521280139885 82.23563175340138
lradius 32.34504062694911
lwrist 7.341951569971245
lhand -27.36202265666478 24.48267679593726
lfingers 7.12502
lthumb -0.47006776711877396 54.92823536383041
rclavicle -1.956281325172797e-15 9.059083884870118e-16
rhumerus -31.46848854636892 -20.815976970907244 -77.85890175664376
rradius 23.073216347427735
rwrist 7.837594265419408
rhand -17.770458017333002 23.564319233294476
rfingers 7.12502
rthumb 8.574832189775606 -6.30285654860273
104
root 0.2194464960407902 17.655800669402463 40.73200247309888 -0.9950137675144253 3.1374004631721824 2.272628723228752
lfemur 13.607516645704255 -5.790725694549293 -25.68159694047292
ltibia 13.809047819385967
lfoot -9.412187519608528 -4.110402689310364
ltoes -14.604087912405149
rfemur -27.196071816957307 3.9704974067529184 18.394419825258858
rtibia 23.293138195482534
rfoot -6.915155369032849 -10.037922417843113
rtoes -6.152687687465974
lowerback 9.384713539090917 -1.0185533068311097 -2.9732801400545252
upperback 0.5107943919679885 -1.7188353042184277 1.3752429322637685
thorax -4.682433921971922 -0.8554003577339662 3.464340440492744
lowerneck -16.7421646068257 -2.965435891579517 -3.598768253838947
upperneck 21.066513725432646 -3.7479043391413613 2.238332448439212
head 9.504743422340399 -1.758763660258126 0.8000120490545304
lclavicle -1.9532630493229277e-15 9.067471833912632e-16
lhumerus -27.480817520378622 -2.4742183046891624 82.3850015425886
lradius 31.526299803884974
lwrist 6.699779689116063
lhand -27.899690617651533 24.44305959921666
lfingers 7.12502
lthumb -0.9826839963640984 54.645714510873084
rclavicle -1.9562802547999353e-15 9.05846983339366e-16
rhumerus -31.842563604868953 -21.73351215527927 -77.21231114977367
rradius 22.288213931704657
rwrist 8.948263309611972
rhand -17.827729099545117 23.33865449818568
rfingers 7.12502
rthumb 8.5194574512295 -6.785374740124233
105
root 0.16351580530558435 17.68180242455066 41.729737201385625 -1.2535756838624919 3.4082897983374525 1.4125268586871145
lfemur 12.303810348798596 -6.478806162990802 -24.421855934740144
ltibia 19.729823688109278
lfoot -6.118988989417675 -6.3773761921917425
ltoes -18.76338677117136
rfemur -27.021409137841133 3.9542977434177122 19.831753470048962
rtibia 27.377916496849526
rfoot -4.776535376561633 -8.262048195386804
rtoes -3.322468555335288
lowerback 9.296094225823245 -1.151353715049634 -2.139612058677683
upperback 0.3127814708704549 -1.7471496544734726 1.7019954824482888
thorax -4.862606440012807 -0.8903285022972689 3.133263518550269
lowerneck -16.760126904379227 -2.888790428794221 -3.512182507359148
upperneck 21.21102810367294 -3.608860711577313 1.983570836877273
head 9.549367792952765 -1.7187985781527348 0.7416682046439217
lclavicle -1.9520684127927653e-15 9.078476952874696e-16
lhumerus -28.997246149585273 -1.9756170126212462 82.69261188996516
lradius 30.73449921246373
lwrist 5.955356636938914
lhand -27.755891831046515 25.32752576846596
lfingers 7.12502
lthumb -0.9894376148614428 55.41407988309634
rclavicle -1.9548196804703462e-15 9.071534509436032e-16
rhumerus -32.22428684561564 -22.703408579551265 -76.46422927363123
rradius 21.541002264936186
rwrist 10.066456315548105
rhand -17.637834841033403 23.089335939892088
rfingers 7.12502
rthumb 8.655272361803094 -7.2700799898592265
